<svg id="Layer_7" data-name="Layer 7" xmlns="http://www.w3.org/2000/svg" viewBox="0 0 512 512">
  <g>
    <path d="M253.77,329.58a3.78,3.78,0,0,1-3.79-3.79V73.73a3.79,3.79,0,1,1,7.58,0V325.79A3.78,3.78,0,0,1,253.77,329.58Z" style="fill: #c0542a"/>
    <path d="M253.77,66c61.87-26.41,99.63,72.66,150.87-14.75.41,12.53-14.75,63.93-75.43,60.68,14.51,18.56,50.68,23.56,75.43,3.09-66.15,68.06-96.25-12.47-150.87,16.66Z" style="fill: #be1e2d"/>
    <polygon points="418.76 309.11 418.76 201.19 386.25 201.19 386.25 247.19 358.66 247.19 358.66 201.19 309.67 201.19 309.67 247.19 282.08 247.19 282.08 201.19 230.74 201.19 230.74 247.19 203.15 247.19 203.15 201.19 154.16 201.19 154.16 247.19 126.56 247.19 126.56 201.19 94.06 201.19 94.06 309.11 418.76 309.11" style="fill: #f7941d"/>
    <path d="M282.52,190.4a5.4,5.4,0,0,1,0,10.79H230.3a5.4,5.4,0,0,1,0-10.79Z" style="fill: #2c4854"/>
    <path d="M359.4,190.4a5.4,5.4,0,1,1,0,10.79H307.92a5.4,5.4,0,0,1,0-10.79Z" style="fill: #2c4854"/>
    <path d="M148,195.79a5.41,5.41,0,0,0,5.39,5.4h51.48a5.4,5.4,0,1,0,0-10.79H153.41A5.41,5.41,0,0,0,148,195.79Z" style="fill: #2c4854"/>
    <path d="M419.89,190.4a5.4,5.4,0,1,1,0,10.79H385a5.4,5.4,0,0,1,0-10.79Z" style="fill: #2c4854"/>
    <path d="M87.53,195.79a5.41,5.41,0,0,0,5.39,5.4h34.87a5.4,5.4,0,0,0,0-10.79H92.92A5.41,5.41,0,0,0,87.53,195.79Z" style="fill: #2c4854"/>
    <path d="M256.41,257.46a8.33,8.33,0,0,1,8.34,8.34v22.46H248.07V265.8A8.33,8.33,0,0,1,256.41,257.46Z" style="fill: #2c4854"/>
    <path d="M335.66,257.46A8.33,8.33,0,0,1,344,265.8v22.46H327.32V265.8A8.33,8.33,0,0,1,335.66,257.46Z" style="fill: #2c4854"/>
    <path d="M177.16,257.46a8.33,8.33,0,0,0-8.34,8.34v22.46H185.5V265.8A8.33,8.33,0,0,0,177.16,257.46Z" style="fill: #2c4854"/>
    <polygon points="416.5 298.2 418.76 309.11 94.06 309.11 96.32 298.2 416.5 298.2" style="fill: #2c4854"/>
    <polygon points="448.86 460.78 63.14 460.78 115.21 309.11 396.79 309.11 448.86 460.78" style="fill: #f7941d"/>
  </g>
</svg>
