<svg xmlns="http://www.w3.org/2000/svg" xmlns:xlink="http://www.w3.org/1999/xlink" viewBox="0 0 512 512">
  <defs>
    <clipPath id="clip-path">
      <path d="M178.58,338.56c-15.28-19-19.77-44.33-20.54-68.57s1.63-48.7-2.12-72.67c-2-12.8-6.92-26.76-18.72-32.4-13.1-6.26-28.87.59-40.08,9.75-17.6,14.4-29.85,34.45-37.52,55.71s-11,43.82-13,66.31c-2.4,26.64-2.75,54.65,9,78.76,13.53,27.8,41.76,46.58,71.75,55.19s62.08,12.33,95.25,8.12c49.14-6.24,99.43,4.22,148-5.56C421.4,423,464.54,381.84,477.8,333c-49.23,11.51-96.65,34.08-147.55,36.55C277.43,372.13,226.77,354.27,178.58,338.56Z" style="fill: none"/>
    </clipPath>
  </defs>
  <g style="isolation: isolate">
    <g id="Layer_3" data-name="Layer 3">
      <g>
        <g>
          <path d="M178.58,338.56c-15.28-19-19.77-44.33-20.54-68.57s1.63-48.7-2.12-72.67c-2-12.8-6.92-26.76-18.72-32.4-13.1-6.26-28.87.59-40.08,9.75-17.6,14.4-29.85,34.45-37.52,55.71s-11,43.82-13,66.31c-2.4,26.64-2.75,54.65,9,78.76,13.53,27.8,41.76,46.58,71.75,55.19s62.08,12.33,95.25,8.12c49.14-6.24,99.43,4.22,148-5.56C421.4,423,464.54,381.84,477.8,333c-49.23,11.51-96.65,34.08-147.55,36.55C277.43,372.13,226.77,354.27,178.58,338.56Z" style="fill: #f7c750"/>
          <g style="clip-path: url(#clip-path)">
            <g>
              <path d="M151.21,422.78a55.42,55.42,0,0,0-1,23.07" style="fill: none;stroke: #eba63f;stroke-linecap: round;stroke-linejoin: round"/>
              <path d="M176.15,423.4a136.89,136.89,0,0,0,1.72,21.68" style="fill: none;stroke: #eba63f;stroke-linecap: round;stroke-linejoin: round"/>
              <path d="M201.75,421.15a92.9,92.9,0,0,0,1.68,21.05" style="fill: none;stroke: #eba63f;stroke-linecap: round;stroke-linejoin: round"/>
              <path d="M231,420.44l-.54,20.1" style="fill: none;stroke: #eba63f;stroke-linecap: round;stroke-linejoin: round"/>
              <line x1="257.49" y1="418.31" x2="256.2" y2="438.1" style="fill: none;stroke: #eba63f;stroke-linecap: round;stroke-linejoin: round"/>
              <path d="M285.72,418.86l-2.28,20" style="fill: none;stroke: #eba63f;stroke-linecap: round;stroke-linejoin: round"/>
              <path d="M311.31,421a123.53,123.53,0,0,1-2.92,18.54" style="fill: none;stroke: #eba63f;stroke-linecap: round;stroke-linejoin: round"/>
              <path d="M338,422.69c.37,6.59.76,13.17,1.13,19.76" style="fill: none;stroke: #eba63f;stroke-linecap: round;stroke-linejoin: round"/>
              <path d="M358.87,423.51a60.77,60.77,0,0,1,1.46,16.41" style="fill: none;stroke: #eba63f;stroke-linecap: round;stroke-linejoin: round"/>
              <path d="M383.85,418.77A59.28,59.28,0,0,1,385.64,436" style="fill: none;stroke: #eba63f;stroke-linecap: round;stroke-linejoin: round"/>
              <path d="M403.91,411.05l.24,15.22" style="fill: none;stroke: #eba63f;stroke-linecap: round;stroke-linejoin: round"/>
              <path d="M422.87,401.79a67.18,67.18,0,0,1-2,22.46" style="fill: none;stroke: #eba63f;stroke-linecap: round;stroke-linejoin: round"/>
            </g>
          </g>
          <path d="M461.65,369.32c-22.8,22.19-47.09,43.64-77.1,54-28.63,9.87-59.77,8.65-90.09,8-33.78-.73-67.7-.62-101.18-5.13s-66.84-13.86-95.16-32.08c-22.71-14.61-41.93-35.4-52.53-59.85.9,14.31,3.7,28.32,10,41.21,13.53,27.8,41.76,46.58,71.75,55.19s62.08,12.33,95.25,8.12c49.14-6.24,99.43,4.22,148-5.56C408.1,425.63,441.43,401.22,461.65,369.32Z" style="fill: #eba63f"/>
          <path d="M354.55,412.34c53.58-5,79.42-50.31,88.05-69.54-37,11.42-73.67,24.9-112.35,26.78-52.82,2.55-103.48-15.31-151.67-31-15.28-19-19.77-44.33-20.54-68.57q-.1-3.39-.13-6.8c-2.31,6.15-24.63,70.16,28.12,109.49C241.48,414,286.35,418.66,354.55,412.34Z" style="fill: #213860;mix-blend-mode: multiply;opacity: 0.12"/>
          <path d="M94.19,196.76A29.41,29.41,0,0,0,132.28,195" style="fill: none;stroke: #213860;stroke-linecap: round;stroke-linejoin: round"/>
          <g>
            <path d="M151.43,231.26a14.19,14.19,0,0,0,6.66-.51,241.47,241.47,0,0,0-1.36-27.3,14.16,14.16,0,1,0-5.3,27.81Z" style="fill: #ffdf79"/>
            <path d="M87.29,219.71a14.48,14.48,0,0,0-2.43-16.53A14.68,14.68,0,0,0,75.28,199a139.72,139.72,0,0,0-12.17,22.52,14.6,14.6,0,0,0,9,5.56A14.84,14.84,0,0,0,87.29,219.71Z" style="fill: #ffdf79"/>
          </g>
          <path d="M55.71,242.53c-5,17.61-7.5,35.91-9.13,54.16-.67,7.43-1.18,15-1.31,22.5" style="fill: none;stroke: #213860;stroke-linecap: round;stroke-linejoin: round"/>
          <path d="M48.87,356.72a93.43,93.43,0,0,0,6.69,18.73c13.53,27.8,41.76,46.58,71.75,55.19a260.94,260.94,0,0,0,28.86,6.58" style="fill: none;stroke: #213860;stroke-linecap: round;stroke-linejoin: round"/>
        </g>
        <g>
          <path d="M429,351.41c21.4-40.8,34.53-88,19.55-131.62s-52.22-79-96.6-91.83c-35.2-10.14-74.73-6-105.94,13.15-37,22.75-59.17,63.46-73.78,104.38-8.59,24.07-15.21,50.15-9.29,75,4.68,19.66,17,37,32.5,50s34,22,53,28.72c35.6,12.63,75,17.88,111.22,7.28C388.45,398.08,415.27,377.58,429,351.41Z" style="fill: #f16671"/>
          <path d="M335.53,286.48a10.84,10.84,0,0,0-1.17-8.19,52,52,0,0,1,45.54,4.2,56.25,56.25,0,0,1-1.45,7.64,70.46,70.46,0,0,0-42.92-3.65" style="fill: #db4852"/>
          <path d="M316.72,273.87a15.47,15.47,0,0,1,9.42-1,125.72,125.72,0,0,1,21.09-48.66,40.07,40.07,0,0,0-8.17-2.05,42,42,0,0,0-6.12-.41,140.82,140.82,0,0,0-16.21,52.12" style="fill: #db4852"/>
          <path d="M306.05,288.62a53.26,53.26,0,0,1-27.78-27.13,109.12,109.12,0,0,1,9.94-15.11,63.52,63.52,0,0,0,23.6,31,22.31,22.31,0,0,0-5.72,11.16" style="fill: #db4852"/>
          <path d="M315.88,315.62a33.3,33.3,0,0,1-6.31-7.84,146.87,146.87,0,0,1-43.86,26.71,48.21,48.21,0,0,0,2.89,6.14,50.15,50.15,0,0,0,6.48,8.93,125.68,125.68,0,0,0,40.8-33.94" style="fill: #db4852"/>
          <path d="M372.1,377.61a185.23,185.23,0,0,0-9.31-62.46,42.41,42.41,0,0,1-13.59,7.23,160.32,160.32,0,0,1,5.43,56.16A131.74,131.74,0,0,0,372.1,377.61Z" style="fill: #db4852"/>
          <path d="M380.23,278.62A57,57,0,0,1,377.3,294,95.08,95.08,0,0,1,439,330.29c2.6-6.14,5-12.37,7-18.67A99.64,99.64,0,0,0,380.23,278.62Z" style="fill: #db4852"/>
          <path d="M441.31,202.62a121.32,121.32,0,0,0-73.61,36.76,57.63,57.63,0,0,1,7.9,13.18,100.08,100.08,0,0,1,73.2-32c-.08-.24-.16-.48-.25-.73A138.32,138.32,0,0,0,441.31,202.62Z" style="fill: #db4852"/>
          <path d="M341.82,125.46A172.81,172.81,0,0,0,328.6,222a42.6,42.6,0,0,1,10.46.16c1.11.15,2.21.36,3.29.6a233.44,233.44,0,0,1,18.06-92.06q-4.19-1.51-8.46-2.74Q346.94,126.52,341.82,125.46Z" style="fill: #db4852"/>
          <path d="M232.16,151a206.46,206.46,0,0,0,61.54,89.14c1.49-1.53,3-3,4.65-4.38q1.71-1.47,3.54-2.84a199.57,199.57,0,0,1-42-99.09A118.9,118.9,0,0,0,246,141.11,126.5,126.5,0,0,0,232.16,151Z" style="fill: #db4852"/>
          <path d="M170.48,250.5A193.14,193.14,0,0,0,267,287a108.75,108.75,0,0,0-2.89,10.53A209.11,209.11,0,0,1,163.6,274.85,219,219,0,0,1,170.48,250.5Z" style="fill: #db4852"/>
          <path d="M279.15,353.61a51.82,51.82,0,0,1-10.55-13c-.19-.34-.37-.68-.55-1a173.22,173.22,0,0,1-66.29,35.84,151,151,0,0,0,22.11,13.4,62.64,62.64,0,0,0,6.85-2.59c17.89-7.88,33.4-20.15,48.58-32.51" style="fill: #db4852"/>
          <path d="M303.66,411.54a101.69,101.69,0,0,0,13.94-38.41,141.35,141.35,0,0,0,15.5,3.48,271,271,0,0,1-8.37,31.62c-.42,1.29-.87,2.6-1.41,3.86A172.19,172.19,0,0,1,303.66,411.54Z" style="fill: #db4852"/>
          <path d="M377,294.84a47.62,47.62,0,0,1-8.91,15.28c-9.49,10.81-25,16.61-38.88,12.92-13.07-3.47-23.55-16-23.61-29.43a35.24,35.24,0,0,0,21,16.84c10.93,3.24,23,1.46,33.25-3.5A67.46,67.46,0,0,0,377,294.81" style="fill: #213860;mix-blend-mode: multiply;opacity: 0.18"/>
          <path d="M446.91,308.85A256.53,256.53,0,0,1,429,351.41l-1.73,1.73c-30.22,29.39-83.39,31.7-124,15.05-13.92-5.71-27.3-14.45-34.68-27.56-5.2-9.25-6.89-19.58-6.28-30.1h-.06c9.71,21.92,30.15,38.79,53.27,45.78,26.42,8,55.64,3.9,80.52-8.07,19.45-9.35,36.39-23.25,50.78-39.42" style="fill: #213860;mix-blend-mode: multiply;opacity: 0.18"/>
          <path d="M359.7,406.48c25.56-7.47,49.57-24.52,64.24-46.6-14.41,12.46-30.37,24.05-48.74,31.05-21.5,8.18-45.27,9.52-68,5.8s-44.4-12.34-64.57-23.4c-32.91-18.06-64.89-47.74-81.61-81.5a91,91,0,0,0,1.89,28.68c4.68,19.66,17,37,32.5,50s34,22,53,28.72C284.08,411.83,323.45,417.08,359.7,406.48Z" style="fill: #213860;mix-blend-mode: multiply;opacity: 0.18"/>
          <path d="M328,294.37c6.77-1.11,10.06-10.4,6.36-16.17s-12.24-7.18-18.31-4-9.63,10-10.29,16.85c-1.37,14.32,9.59,28.28,23.49,32s29.39-2.11,38.88-12.92,13.3-25.9,12-40.23c-2.06-22.54-18.6-44.57-41-47.73-14.61-2.06-29.54,3.94-40.71,13.57s-19,22.57-25.23,35.94c-10.13,21.7-16.26,48.08-4.52,69,7.38,13.11,20.76,21.85,34.68,27.56,40.6,16.65,93.77,14.34,124-15.05l1.73-1.73c-13.73,26.17-40.55,46.67-69.3,55.07-36.25,10.6-75.62,5.35-111.22-7.28-19-6.76-37.56-15.72-53-28.72s-27.82-30.31-32.5-50a82.92,82.92,0,0,1-2-12.73" style="fill: none;stroke: #213860;stroke-linecap: round;stroke-linejoin: round"/>
          <path d="M245.64,155.26c20.44-13.41,46.17-19.19,51.29-5s-24.81,15.35-35.41,29.91-23.72,28-34,17.43S231.72,164.39,245.64,155.26Z" style="fill: #fff;mix-blend-mode: soft-light"/>
          <path d="M219.3,204.19c17.06,5.55,9.24,27.51-6.9,23.68S205.32,199.65,219.3,204.19Z" style="fill: #fff;mix-blend-mode: soft-light"/>
        </g>
        <g>
          <path d="M131.28,174.11h-.18a4.91,4.91,0,0,1-4.73-5.08,102.7,102.7,0,0,1,21-58.31,4.91,4.91,0,0,1,7.78,6,92.61,92.61,0,0,0-19,52.69A4.91,4.91,0,0,1,131.28,174.11Z" style="fill: #f7c750"/>
          <path d="M145.92,76.88a24,24,0,0,1,31.63,32.94,24,24,0,0,1-45-7.66A24.55,24.55,0,0,1,145.92,76.88Z" style="fill: #f7c750"/>
          <g>
            <path d="M141.7,99.5s.59,15.23,16.06,15.18S176.61,95.54,166,87.52Z" style="fill: #213860;mix-blend-mode: multiply;opacity: 0.12"/>
            <path d="M164.43,85.38a15.2,15.2,0,0,0-17-.55,14.57,14.57,0,0,0,7,26.73,14.76,14.76,0,0,0,14.31-9.15C170.87,96.76,169.47,89.18,164.43,85.38Z" style="fill: #fff"/>
            <g>
              <path d="M158.77,90.35a8.46,8.46,0,0,0-12,.84,8.7,8.7,0,0,0,1.83,12,9,9,0,0,0,12-2.22C163.17,97.25,161.37,92.88,158.77,90.35Z" style="fill: #213860"/>
              <path d="M162.87,102.11a4.7,4.7,0,1,1-4.7-4.7A4.69,4.69,0,0,1,162.87,102.11Z" style="fill: #fff"/>
            </g>
          </g>
        </g>
        <g>
          <path d="M92.47,191.42a4.91,4.91,0,0,1-4.39-2.72,122.64,122.64,0,0,1-12.52-65.1,4.91,4.91,0,0,1,9.78.82,112.82,112.82,0,0,0,11.51,59.9,4.91,4.91,0,0,1-4.38,7.1Z" style="fill: #f7c750"/>
          <path d="M88.55,85.18a24,24,0,0,0-31.64,32.94A24.71,24.71,0,0,0,82.2,130.57a24,24,0,0,0,6.35-45.39Z" style="fill: #f7c750"/>
          <g>
            <path d="M63.13,108.35S64.2,123.55,79.66,123,97.89,103.28,87,95.6Z" style="fill: #213860;mix-blend-mode: multiply;opacity: 0.12"/>
            <path d="M86.45,93.7a14.72,14.72,0,0,0-23.16,15.35A14.9,14.9,0,0,0,76.4,119.88a14.75,14.75,0,0,0,14.31-9.15C92.89,105.08,91.49,97.5,86.45,93.7Z" style="fill: #fff"/>
            <g>
              <path d="M81.1,98.29a8.46,8.46,0,0,0-12,.84,8.71,8.71,0,0,0,1.82,12,9,9,0,0,0,12-2.23C85.49,105.19,83.7,100.82,81.1,98.29Z" style="fill: #213860"/>
              <path d="M85.19,110.06a4.7,4.7,0,1,1-4.69-4.7A4.69,4.69,0,0,1,85.19,110.06Z" style="fill: #fff"/>
            </g>
          </g>
        </g>
      </g>
    </g>
  </g>
</svg>
